<?xml version="1.0" encoding="UTF-8"?>
<svg id="a" data-name="Layer 1" xmlns="http://www.w3.org/2000/svg" xmlns:xlink="http://www.w3.org/1999/xlink" viewBox="0 0 2611.21 941.62">
  <defs>
    <style>
      .c, .d {
        fill: none;
      }

      .c, .e {
        stroke-width: 0px;
      }

      .f {
        clip-path: url(#b);
      }

      .d {
        stroke: #23069e;
        stroke-miterlimit: 10;
      }

      .e {
        fill: #23069e;
      }
    </style>
    <clipPath id="b">
      <rect class="c" x="5" y="215.15" width="1440" height="722.94"/>
    </clipPath>
  </defs>
  <g class="f">
    <circle class="e" cx="156.86" cy="574.47" r="3.07"/>
    <circle class="e" cx="1426.77" cy="297.84" r="3.98"/>
    <path class="e" d="M430.21,350.35c0,1.85-1.5,3.36-3.35,3.36s-3.36-1.5-3.36-3.36,1.5-3.35,3.36-3.35,3.35,1.5,3.35,3.35Z"/>
    <path class="e" d="M1393.42,650.21c0,1.79-1.45,3.24-3.24,3.24s-3.24-1.45-3.24-3.24,1.45-3.24,3.24-3.24,3.24,1.45,3.24,3.24Z"/>
    <path class="e" d="M822.3,919.38c0,1.77-1.43,3.2-3.2,3.2s-3.2-1.43-3.2-3.2,1.43-3.2,3.2-3.2,3.2,1.43,3.2,3.2Z"/>
    <circle class="e" cx="1053.98" cy="625.85" r="2.56"/>
    <path class="e" d="M379.67,845.1c0,2.06-1.67,3.73-3.73,3.73s-3.73-1.67-3.73-3.73,1.67-3.73,3.73-3.73,3.73,1.67,3.73,3.73Z"/>
    <path class="e" d="M1188.69,362.39c0,1.11-.9,2.02-2.02,2.02s-2.02-.9-2.02-2.02.9-2.02,2.02-2.02,2.02.9,2.02,2.02Z"/>
    <path class="e" d="M777.31,476.73c0,1.02-.83,1.85-1.85,1.85s-1.85-.83-1.85-1.85.83-1.85,1.85-1.85,1.85.83,1.85,1.85Z"/>
    <circle class="e" cx="606.82" cy="710.21" r="2.23"/>
    <circle class="e" cx="532.08" cy="904.73" r="2.02"/>
    <path class="e" d="M1265.59,391.87c0,.68-.55,1.23-1.23,1.23s-1.23-.55-1.23-1.23.55-1.23,1.23-1.23,1.23.55,1.23,1.23Z"/>
    <path class="e" d="M362.26,268.33c0,1.07-.87,1.94-1.94,1.94s-1.94-.87-1.94-1.94.87-1.94,1.94-1.94,1.94.87,1.94,1.94Z"/>
    <path class="e" d="M244.12,378.26c0,.9-.73,1.62-1.62,1.62s-1.62-.73-1.62-1.62.73-1.62,1.62-1.62,1.62.73,1.62,1.62Z"/>
    <path class="e" d="M1022.21,888.4c0,.74-.6,1.33-1.34,1.33s-1.33-.6-1.33-1.33.6-1.33,1.33-1.33,1.34.6,1.34,1.33Z"/>
    <path class="e" d="M1439.81,306.17c0,1.26-1.02,2.29-2.29,2.29s-2.29-1.02-2.29-2.29,1.02-2.29,2.29-2.29,2.29,1.02,2.29,2.29Z"/>
    <path class="e" d="M266.39,672.3c0,1.35-1.1,2.45-2.45,2.45s-2.45-1.1-2.45-2.45,1.1-2.45,2.45-2.45,2.45,1.1,2.45,2.45Z"/>
    <path class="e" d="M213.93,225.61c0,.9-.73,1.63-1.63,1.63s-1.63-.73-1.63-1.63.73-1.63,1.63-1.63,1.63.73,1.63,1.63Z"/>
    <path class="e" d="M1454.33,700.39c0,.77-.62,1.4-1.4,1.4s-1.4-.62-1.4-1.4.62-1.4,1.4-1.4,1.4.62,1.4,1.4Z"/>
    <circle class="e" cx="350.44" cy="820.6" r="2.04"/>
    <path class="e" d="M1288.06,747.59c0,.77-.62,1.39-1.4,1.39s-1.4-.62-1.4-1.39.62-1.4,1.4-1.4,1.4.62,1.4,1.4Z"/>
    <path class="e" d="M761.17,939.51c0,.65-.53,1.18-1.18,1.18s-1.18-.53-1.18-1.18.53-1.18,1.18-1.18,1.18.53,1.18,1.18Z"/>
    <path class="e" d="M955.26,670.73c0,1.19-.97,2.16-2.16,2.16s-2.16-.97-2.16-2.16.97-2.16,2.16-2.16,2.16.97,2.16,2.16Z"/>
    <circle class="e" cx="167.1" cy="638.61" r="1.32"/>
    <path class="e" d="M178.82,883.14c0,.74-.6,1.35-1.35,1.35s-1.35-.6-1.35-1.35.6-1.35,1.35-1.35,1.35.6,1.35,1.35Z"/>
    <path class="e" d="M596.84,225.49c0,.76-.62,1.38-1.38,1.38s-1.37-.62-1.37-1.38.62-1.37,1.37-1.37,1.38.62,1.38,1.37Z"/>
    <circle class="e" cx="617.07" cy="519.58" r="1.3"/>
    <circle class="e" cx="424.76" cy="439.76" r="1.77"/>
    <path class="e" d="M940.54,419.27c0,1.04-.85,1.89-1.89,1.89s-1.89-.84-1.89-1.89.84-1.89,1.89-1.89,1.89.85,1.89,1.89Z"/>
    <path class="e" d="M1101.52,235.26c0,1.02-.83,1.85-1.84,1.85s-1.84-.83-1.84-1.85.83-1.84,1.84-1.84,1.84.83,1.84,1.84Z"/>
    <circle class="e" cx="740.86" cy="367.42" r="1.85"/>
    <path class="e" d="M755.07,687.7c0,.73-.59,1.32-1.32,1.32s-1.32-.59-1.32-1.32.59-1.32,1.32-1.32,1.32.59,1.32,1.32Z"/>
    <circle class="e" cx="1177.92" cy="588.84" r="1.14"/>
    <circle class="e" cx="156.86" cy="698.05" r="3.07"/>
    <path class="e" d="M430.21,922.17c0-1.85-1.5-3.35-3.35-3.35s-3.36,1.5-3.36,3.35,1.5,3.36,3.36,3.36,3.35-1.5,3.35-3.36Z"/>
    <path class="e" d="M1393.42,622.31c0-1.79-1.45-3.24-3.24-3.24s-3.24,1.45-3.24,3.24,1.45,3.25,3.24,3.25,3.24-1.45,3.24-3.25Z"/>
    <path class="e" d="M1286.31,289.73c0-1.29-1.05-2.34-2.34-2.34s-2.34,1.04-2.34,2.34,1.05,2.34,2.34,2.34,2.34-1.05,2.34-2.34Z"/>
    <path class="e" d="M822.3,353.14c0-1.77-1.43-3.2-3.2-3.2s-3.2,1.43-3.2,3.2,1.43,3.2,3.2,3.2,3.2-1.43,3.2-3.2Z"/>
    <path class="e" d="M185.64,283.48c0-1.54-1.25-2.79-2.79-2.79s-2.79,1.25-2.79,2.79,1.25,2.79,2.79,2.79,2.79-1.25,2.79-2.79Z"/>
    <circle class="e" cx="1053.98" cy="646.68" r="2.56"/>
    <path class="e" d="M379.67,427.42c0-2.06-1.67-3.73-3.73-3.73s-3.73,1.67-3.73,3.73,1.67,3.73,3.73,3.73,3.73-1.67,3.73-3.73Z"/>
    <path class="e" d="M398.86,282.06c0-2.28-1.85-4.12-4.12-4.12s-4.12,1.85-4.12,4.12,1.85,4.12,4.12,4.12,4.12-1.85,4.12-4.12Z"/>
    <path class="e" d="M1188.69,910.13c0-1.11-.9-2.02-2.02-2.02s-2.02.9-2.02,2.02.9,2.02,2.02,2.02,2.02-.9,2.02-2.02Z"/>
    <path class="e" d="M777.31,795.79c0-1.02-.83-1.85-1.85-1.85s-1.85.83-1.85,1.85.83,1.85,1.85,1.85,1.85-.83,1.85-1.85Z"/>
    <circle class="e" cx="606.82" cy="562.31" r="2.23"/>
    <circle class="e" cx="532.08" cy="367.79" r="2.02"/>
    <path class="e" d="M1265.59,880.65c0-.68-.55-1.23-1.23-1.23s-1.23.55-1.23,1.23.55,1.23,1.23,1.23,1.23-.55,1.23-1.23Z"/>
    <path class="e" d="M212.23,846.26c0-.9-.73-1.62-1.62-1.62s-1.62.73-1.62,1.62.73,1.62,1.62,1.62,1.62-.73,1.62-1.62Z"/>
    <path class="e" d="M1022.21,384.12c0-.74-.6-1.33-1.34-1.33s-1.33.6-1.33,1.33.6,1.34,1.33,1.34,1.34-.6,1.34-1.34Z"/>
    <path class="e" d="M244.95,533.35c0-1.35-1.1-2.45-2.45-2.45s-2.45,1.1-2.45,2.45,1.1,2.45,2.45,2.45,2.45-1.1,2.45-2.45Z"/>
    <path class="e" d="M322.27,248.55c0-.95-.77-1.72-1.72-1.72s-1.72.77-1.72,1.72.77,1.72,1.72,1.72,1.72-.77,1.72-1.72Z"/>
    <path class="e" d="M1454.33,572.14c0-.77-.62-1.4-1.4-1.4s-1.4.63-1.4,1.4.62,1.4,1.4,1.4,1.4-.63,1.4-1.4Z"/>
    <circle class="e" cx="330.94" cy="367.89" r="2.04"/>
    <circle class="e" cx="1286.66" cy="524.93" r="1.4"/>
    <path class="e" d="M761.17,333.02c0-.65-.53-1.18-1.18-1.18s-1.18.53-1.18,1.18.53,1.18,1.18,1.18,1.18-.53,1.18-1.18Z"/>
    <path class="e" d="M1253.4,304.33c0-.65-.53-1.18-1.18-1.18s-1.18.53-1.18,1.18.53,1.18,1.18,1.18,1.18-.53,1.18-1.18Z"/>
    <path class="e" d="M955.26,601.8c0-1.19-.97-2.16-2.16-2.16s-2.16.97-2.16,2.16.97,2.16,2.16,2.16,2.16-.97,2.16-2.16Z"/>
    <path class="e" d="M1447.13,297.47c0-.76-.62-1.38-1.38-1.38s-1.38.62-1.38,1.38.62,1.38,1.38,1.38,1.38-.62,1.38-1.38Z"/>
    <circle class="e" cx="167.1" cy="633.92" r="1.32"/>
    <path class="e" d="M157.29,400.81c0-.74-.6-1.35-1.35-1.35s-1.35.6-1.35,1.35.6,1.35,1.35,1.35,1.35-.6,1.35-1.35Z"/>
    <circle class="e" cx="617.07" cy="752.94" r="1.3"/>
    <circle class="e" cx="424.76" cy="832.76" r="1.77"/>
    <path class="e" d="M940.54,853.25c0-1.04-.85-1.89-1.89-1.89s-1.89.85-1.89,1.89.84,1.89,1.89,1.89,1.89-.85,1.89-1.89Z"/>
    <path class="e" d="M742.71,905.1c0-1.02-.83-1.85-1.85-1.85s-1.85.83-1.85,1.85.83,1.85,1.85,1.85,1.85-.83,1.85-1.85Z"/>
    <path class="e" d="M755.07,584.83c0-.73-.59-1.32-1.32-1.32s-1.32.59-1.32,1.32.59,1.32,1.32,1.32,1.32-.59,1.32-1.32Z"/>
    <circle class="e" cx="1177.92" cy="683.68" r="1.14"/>
  </g>
  <rect class="c" x="1168.11" width="1443.1" height="722.94"/>
  <g>
    <rect class="d" x="5" y="216.62" width="1440" height="720"/>
    <polyline class="d" points="5 936.18 31.43 936.18 79.3 936.18 127.15 936.18 175.37 936.18 223.23 936.18 271.09 936.18 318.95 936.18 366.8 936.18 414.67 936.18 462.52 936.18 510.38 936.18 558.61 936.18 606.46 936.18 654.32 936.18 702.17 936.18 750.04 936.18 797.89 936.18 845.75 936.18 893.61 936.18 941.83 936.18 989.69 936.18 1037.54 936.18 1085.41 936.18 1133.26 936.18 1181.12 936.18 1228.98 936.18 1276.84 936.18 1325.06 936.18 1372.92 936.18 1420.78 936.18 1445 936.18"/>
    <polyline class="d" points="5 888.34 31.43 888.34 79.3 888.34 127.15 888.34 175.37 888.34 223.23 888.34 271.09 888.34 318.95 888.34 366.8 888.34 414.67 888.34 462.52 888.34 510.38 888.34 558.61 888.34 606.46 888.34 654.32 888.34 702.17 888.34 750.04 888.34 797.89 888.34 845.75 888.34 893.61 888.34 941.83 888.34 989.69 888.34 1037.54 888.34 1085.41 888.34 1133.26 888.34 1181.12 888.34 1228.98 888.34 1276.84 888.34 1325.06 888.34 1372.92 888.34 1420.78 888.34 1445 888.34"/>
    <polyline class="d" points="5 840.47 31.43 840.47 79.3 840.47 127.15 840.47 175.37 840.47 223.23 840.47 271.09 840.47 318.95 840.47 366.8 840.47 414.67 840.47 462.52 840.47 510.38 840.47 558.61 840.47 606.46 840.47 654.32 840.47 702.17 840.47 750.04 840.47 797.89 840.47 845.75 840.47 893.61 840.47 941.83 840.47 989.69 840.47 1037.54 840.47 1085.41 840.47 1133.26 840.47 1181.12 840.47 1228.98 840.47 1276.84 840.47 1325.06 840.47 1372.92 840.47 1420.78 840.47 1445 840.47"/>
    <polyline class="d" points="5 792.61 31.43 792.61 79.3 792.61 127.15 792.61 175.37 792.61 223.23 792.61 271.09 792.61 318.95 792.61 366.8 792.61 414.67 792.61 462.52 792.61 510.38 792.61 558.61 792.61 606.46 792.61 654.32 792.61 702.17 792.61 750.04 792.61 797.89 792.61 845.75 792.61 893.61 792.61 941.83 792.61 989.69 792.61 1037.54 792.61 1085.41 792.61 1133.26 792.61 1181.12 792.61 1228.98 792.61 1276.84 792.61 1325.06 792.61 1372.92 792.61 1420.78 792.61 1445 792.61"/>
    <polyline class="d" points="5 744.76 31.43 744.76 79.3 744.76 127.15 744.76 175.37 744.76 223.23 744.76 271.09 744.76 318.95 744.76 366.8 744.76 414.67 744.76 462.52 744.76 510.38 744.76 558.61 744.76 606.46 744.76 654.32 744.76 702.17 744.76 750.04 744.76 797.89 744.76 845.75 744.76 893.61 744.76 941.83 744.76 989.69 744.76 1037.54 744.76 1085.41 744.76 1133.26 744.76 1181.12 744.76 1228.98 744.76 1276.84 744.76 1325.06 744.76 1372.92 744.76 1420.78 744.76 1445 744.76"/>
    <polyline class="d" points="5 696.9 31.43 696.9 79.3 696.9 127.15 696.9 175.37 696.9 223.23 696.9 271.09 696.9 318.95 696.9 366.8 696.9 414.67 696.9 462.52 696.9 510.38 696.9 558.61 696.9 606.46 696.9 654.32 696.9 702.17 696.9 750.04 696.9 797.89 696.9 845.75 696.9 893.61 696.9 941.83 696.9 989.69 696.9 1037.54 696.9 1085.41 696.9 1133.26 696.9 1181.12 696.9 1228.98 696.9 1276.84 696.9 1325.06 696.9 1372.92 696.9 1420.78 696.9 1445 696.9"/>
    <polyline class="d" points="1445 648.68 1420.78 648.68 1372.92 648.68 1325.06 648.68 1276.84 648.68 1228.98 648.68 1181.12 648.68 1133.26 648.68 1085.41 648.68 1037.54 648.68 989.69 648.68 941.83 648.68 893.61 648.68 845.75 648.68 797.89 648.68 750.04 648.68 702.17 648.68 654.32 648.68 606.46 648.68 558.61 648.68 510.38 648.68 462.52 648.68 414.67 648.68 366.8 648.68 318.95 648.68 271.09 648.68 223.23 648.68 175.37 648.68 127.15 648.68 79.3 648.68 31.43 648.68 5 648.68"/>
    <polyline class="d" points="5 600.82 31.43 600.82 79.3 600.82 127.15 600.82 175.37 600.82 223.23 600.82 271.09 600.82 318.95 600.82 366.8 600.82 414.67 600.82 462.52 600.82 510.38 600.82 558.61 600.82 606.46 600.82 654.32 600.82 702.17 600.82 750.04 600.82 797.89 600.82 845.75 600.82 893.61 600.82 941.83 600.82 989.69 600.82 1037.54 600.82 1085.41 600.82 1133.26 600.82 1181.12 600.82 1228.98 600.82 1276.84 600.82 1325.06 600.82 1372.92 600.82 1420.78 600.82 1445 600.82"/>
    <polyline class="d" points="1445 552.96 1420.78 552.96 1372.92 552.96 1325.06 552.96 1276.84 552.96 1228.98 552.96 1181.12 552.96 1133.26 552.96 1085.41 552.96 1037.54 552.96 989.69 552.96 941.83 552.96 893.61 552.96 845.75 552.96 797.89 552.96 750.04 552.96 702.17 552.96 654.32 552.96 606.46 552.96 558.61 552.96 510.38 552.96 462.52 552.96 414.67 552.96 366.8 552.96 318.95 552.96 271.09 552.96 223.23 552.96 175.37 552.96 127.15 552.96 79.3 552.96 31.43 552.96 5 552.96"/>
    <polyline class="d" points="5 505.11 31.43 505.11 79.3 505.11 127.15 505.11 175.37 505.11 223.23 505.11 271.09 505.11 318.95 505.11 366.8 505.11 414.67 505.11 462.52 505.11 510.38 505.11 558.61 505.11 606.46 505.11 654.32 505.11 702.17 505.11 750.04 505.11 797.89 505.11 845.75 505.11 893.61 505.11 941.83 505.11 989.69 505.11 1037.54 505.11 1085.41 505.11 1133.26 505.11 1181.12 505.11 1228.98 505.11 1276.84 505.11 1325.06 505.11 1372.92 505.11 1420.78 505.11 1445 505.11"/>
    <polyline class="d" points="5 457.25 31.43 457.25 79.3 457.25 127.15 457.25 175.37 457.25 223.23 457.25 271.09 457.25 318.95 457.25 366.8 457.25 414.67 457.25 462.52 457.25 510.38 457.25 558.61 457.25 606.46 457.25 654.32 457.25 702.17 457.25 750.04 457.25 797.89 457.25 845.75 457.25 893.61 457.25 941.83 457.25 989.69 457.25 1037.54 457.25 1085.41 457.25 1133.26 457.25 1181.12 457.25 1228.98 457.25 1276.84 457.25 1325.06 457.25 1372.92 457.25 1420.78 457.25 1445 457.25"/>
    <polyline class="d" points="5 409.38 31.43 409.38 79.3 409.38 127.15 409.38 175.37 409.38 223.23 409.38 271.09 409.38 318.95 409.38 366.8 409.38 414.67 409.38 462.52 409.38 510.38 409.38 558.61 409.38 606.46 409.38 654.32 409.38 702.17 409.38 750.04 409.38 797.89 409.38 845.75 409.38 893.61 409.38 941.83 409.38 989.69 409.38 1037.54 409.38 1085.41 409.38 1133.26 409.38 1181.12 409.38 1228.98 409.38 1276.84 409.38 1325.06 409.38 1372.92 409.38 1420.78 409.38 1445 409.38"/>
    <polyline class="d" points="5 361.53 31.43 361.53 79.3 361.53 127.15 361.53 175.37 361.53 223.23 361.53 271.09 361.53 318.95 361.53 366.8 361.53 414.67 361.53 462.52 361.53 510.38 361.53 558.61 361.53 606.46 361.53 654.32 361.53 702.17 361.53 750.04 361.53 797.89 361.53 845.75 361.53 893.61 361.53 941.83 361.53 989.69 361.53 1037.54 361.53 1085.41 361.53 1133.26 361.53 1181.12 361.53 1228.98 361.53 1276.84 361.53 1325.06 361.53 1372.92 361.53 1420.78 361.53 1445 361.53"/>
    <polyline class="d" points="5 313.67 31.43 313.67 79.3 313.67 127.15 313.67 175.37 313.67 223.23 313.67 271.09 313.67 318.95 313.67 366.8 313.67 414.67 313.67 462.52 313.67 510.38 313.67 558.61 313.67 606.46 313.67 654.32 313.67 702.17 313.67 750.04 313.67 797.89 313.67 845.75 313.67 893.61 313.67 941.83 313.67 989.69 313.67 1037.54 313.67 1085.41 313.67 1133.26 313.67 1181.12 313.67 1228.98 313.67 1276.84 313.67 1325.06 313.67 1372.92 313.67 1420.78 313.67 1445 313.67"/>
    <polyline class="d" points="5 265.44 31.43 265.44 79.3 265.44 127.15 265.44 175.37 265.44 223.23 265.44 271.09 265.44 318.95 265.44 366.8 265.44 414.67 265.44 462.52 265.44 510.38 265.44 558.61 265.44 606.46 265.44 654.32 265.44 702.17 265.44 750.04 265.44 797.89 265.44 845.75 265.44 893.61 265.44 941.83 265.44 989.69 265.44 1037.54 265.44 1085.41 265.44 1133.26 265.44 1181.12 265.44 1228.98 265.44 1276.84 265.44 1325.06 265.44 1372.92 265.44 1420.78 265.44 1445 265.44"/>
    <polyline class="d" points="1445 217.59 1420.78 217.59 1372.92 217.59 1325.06 217.59 1276.84 217.59 1228.98 217.59 1181.12 217.59 1133.26 217.59 1085.41 217.59 1037.54 217.59 989.69 217.59 941.83 217.59 893.61 217.59 845.75 217.59 797.89 217.59 750.04 217.59 702.17 217.59 654.32 217.59 606.46 217.59 558.61 217.59 510.38 217.59 462.52 217.59 414.67 217.59 366.8 217.59 318.95 217.59 271.09 217.59 223.23 217.59 175.37 217.59 127.15 217.59 79.3 217.59 31.43 217.59 5 217.59"/>
    <polyline class="d" points="1420.78 216.62 1420.78 217.59 1420.78 265.44 1420.78 313.67 1420.78 361.53 1420.78 409.38 1420.78 457.25 1420.78 505.11 1420.78 552.96 1420.78 600.82 1420.78 648.68 1420.78 696.9 1420.78 744.76 1420.78 792.61 1420.78 840.47 1420.78 888.34 1420.78 936.18 1420.78 936.62"/>
    <polyline class="d" points="1372.92 936.62 1372.92 936.18 1372.92 888.34 1372.92 840.47 1372.92 792.61 1372.92 744.76 1372.92 696.9 1372.92 648.68 1372.92 600.82 1372.92 552.96 1372.92 505.11 1372.92 457.25 1372.92 409.38 1372.92 361.53 1372.92 313.67 1372.92 265.44 1372.92 217.59 1372.92 216.62"/>
    <polyline class="d" points="1325.06 936.62 1325.06 936.18 1325.06 888.34 1325.06 840.47 1325.06 792.61 1325.06 744.76 1325.06 696.9 1325.06 648.68 1325.06 600.82 1325.06 552.96 1325.06 505.11 1325.06 457.25 1325.06 409.38 1325.06 361.53 1325.06 313.67 1325.06 265.44 1325.06 217.59 1325.06 216.62"/>
    <polyline class="d" points="1276.84 936.62 1276.84 936.18 1276.84 888.34 1276.84 840.47 1276.84 792.61 1276.84 744.76 1276.84 696.9 1276.84 648.68 1276.84 600.82 1276.84 552.96 1276.84 505.11 1276.84 457.25 1276.84 409.38 1276.84 361.53 1276.84 313.67 1276.84 265.44 1276.84 217.59 1276.84 216.62"/>
    <polyline class="d" points="1228.98 936.62 1228.98 936.18 1228.98 888.34 1228.98 840.47 1228.98 792.61 1228.98 744.76 1228.98 696.9 1228.98 648.68 1228.98 600.82 1228.98 552.96 1228.98 505.11 1228.98 457.25 1228.98 409.38 1228.98 361.53 1228.98 313.67 1228.98 265.44 1228.98 217.59 1228.98 216.62"/>
    <polyline class="d" points="1181.12 936.62 1181.12 936.18 1181.12 888.34 1181.12 840.47 1181.12 792.61 1181.12 744.76 1181.12 696.9 1181.12 648.68 1181.12 600.82 1181.12 552.96 1181.12 505.11 1181.12 457.25 1181.12 409.38 1181.12 361.53 1181.12 313.67 1181.12 265.44 1181.12 217.59 1181.12 216.62"/>
    <polyline class="d" points="1133.26 936.62 1133.26 936.18 1133.26 888.34 1133.26 840.47 1133.26 792.61 1133.26 744.76 1133.26 696.9 1133.26 648.68 1133.26 600.82 1133.26 552.96 1133.26 505.11 1133.26 457.25 1133.26 409.38 1133.26 361.53 1133.26 313.67 1133.26 265.44 1133.26 217.59 1133.26 216.62"/>
    <polyline class="d" points="1085.41 936.62 1085.41 936.18 1085.41 888.34 1085.41 840.47 1085.41 792.61 1085.41 744.76 1085.41 696.9 1085.41 648.68 1085.41 600.82 1085.41 552.96 1085.41 505.11 1085.41 457.25 1085.41 409.38 1085.41 361.53 1085.41 313.67 1085.41 265.44 1085.41 217.59 1085.41 216.62"/>
    <polyline class="d" points="1037.54 936.62 1037.54 936.18 1037.54 888.34 1037.54 840.47 1037.54 792.61 1037.54 744.76 1037.54 696.9 1037.54 648.68 1037.54 600.82 1037.54 552.96 1037.54 505.11 1037.54 457.25 1037.54 409.38 1037.54 361.53 1037.54 313.67 1037.54 265.44 1037.54 217.59 1037.54 216.62"/>
    <polyline class="d" points="989.69 936.62 989.69 936.18 989.69 888.34 989.69 840.47 989.69 792.61 989.69 744.76 989.69 696.9 989.69 648.68 989.69 600.82 989.69 552.96 989.69 505.11 989.69 457.25 989.69 409.38 989.69 361.53 989.69 313.67 989.69 265.44 989.69 217.59 989.69 216.62"/>
    <polyline class="d" points="941.83 216.62 941.83 217.59 941.83 265.44 941.83 313.67 941.83 361.53 941.83 409.38 941.83 457.25 941.83 505.11 941.83 552.96 941.83 600.82 941.83 648.68 941.83 696.9 941.83 744.76 941.83 792.61 941.83 840.47 941.83 888.34 941.83 936.18 941.83 936.62"/>
    <polyline class="d" points="893.61 216.62 893.61 217.59 893.61 265.44 893.61 313.67 893.61 361.53 893.61 409.38 893.61 457.25 893.61 505.11 893.61 552.96 893.61 600.82 893.61 648.68 893.61 696.9 893.61 744.76 893.61 792.61 893.61 840.47 893.61 888.34 893.61 936.18 893.61 936.62"/>
    <polyline class="d" points="845.75 936.62 845.75 936.18 845.75 888.34 845.75 840.47 845.75 792.61 845.75 744.76 845.75 696.9 845.75 648.68 845.75 600.82 845.75 552.96 845.75 505.11 845.75 457.25 845.75 409.38 845.75 361.53 845.75 313.67 845.75 265.44 845.75 217.59 845.75 216.62"/>
    <polyline class="d" points="797.89 936.62 797.89 936.18 797.89 888.34 797.89 840.47 797.89 792.61 797.89 744.76 797.89 696.9 797.89 648.68 797.89 600.82 797.89 552.96 797.89 505.11 797.89 457.25 797.89 409.38 797.89 361.53 797.89 313.67 797.89 265.44 797.89 217.59 797.89 216.62"/>
    <polyline class="d" points="750.04 936.62 750.04 936.18 750.04 888.34 750.04 840.47 750.04 792.61 750.04 744.76 750.04 696.9 750.04 648.68 750.04 600.82 750.04 552.96 750.04 505.11 750.04 457.25 750.04 409.38 750.04 361.53 750.04 313.67 750.04 265.44 750.04 217.59 750.04 216.62"/>
    <polyline class="d" points="702.17 936.62 702.17 936.18 702.17 888.34 702.17 840.47 702.17 792.61 702.17 744.76 702.17 696.9 702.17 648.68 702.17 600.82 702.17 552.96 702.17 505.11 702.17 457.25 702.17 409.38 702.17 361.53 702.17 313.67 702.17 265.44 702.17 217.59 702.17 216.62"/>
    <polyline class="d" points="654.32 936.62 654.32 936.18 654.32 888.34 654.32 840.47 654.32 792.61 654.32 744.76 654.32 696.9 654.32 648.68 654.32 600.82 654.32 552.96 654.32 505.11 654.32 457.25 654.32 409.38 654.32 361.53 654.32 313.67 654.32 265.44 654.32 217.59 654.32 216.62"/>
    <polyline class="d" points="606.46 936.62 606.46 936.18 606.46 888.34 606.46 840.47 606.46 792.61 606.46 744.76 606.46 696.9 606.46 648.68 606.46 600.82 606.46 552.96 606.46 505.11 606.46 457.25 606.46 409.38 606.46 361.53 606.46 313.67 606.46 265.44 606.46 217.59 606.46 216.62"/>
    <polyline class="d" points="558.61 936.62 558.61 936.18 558.61 888.34 558.61 840.47 558.61 792.61 558.61 744.76 558.61 696.9 558.61 648.68 558.61 600.82 558.61 552.96 558.61 505.11 558.61 457.25 558.61 409.38 558.61 361.53 558.61 313.67 558.61 265.44 558.61 217.59 558.61 216.62"/>
    <polyline class="d" points="510.38 936.62 510.38 936.18 510.38 888.34 510.38 840.47 510.38 792.61 510.38 744.76 510.38 696.9 510.38 648.68 510.38 600.82 510.38 552.96 510.38 505.11 510.38 457.25 510.38 409.38 510.38 361.53 510.38 313.67 510.38 265.44 510.38 217.59 510.38 216.62"/>
    <polyline class="d" points="462.52 936.62 462.52 936.18 462.52 888.34 462.52 840.47 462.52 792.61 462.52 744.76 462.52 696.9 462.52 648.68 462.52 600.82 462.52 552.96 462.52 505.11 462.52 457.25 462.52 409.38 462.52 361.53 462.52 313.67 462.52 265.44 462.52 217.59 462.52 216.62"/>
    <polyline class="d" points="414.67 936.62 414.67 936.18 414.67 888.34 414.67 840.47 414.67 792.61 414.67 744.76 414.67 696.9 414.67 648.68 414.67 600.82 414.67 552.96 414.67 505.11 414.67 457.25 414.67 409.38 414.67 361.53 414.67 313.67 414.67 265.44 414.67 217.59 414.67 216.62"/>
    <polyline class="d" points="366.8 216.62 366.8 217.59 366.8 265.44 366.8 313.67 366.8 361.53 366.8 409.38 366.8 457.25 366.8 505.11 366.8 552.96 366.8 600.82 366.8 648.68 366.8 696.9 366.8 744.76 366.8 792.61 366.8 840.47 366.8 888.34 366.8 936.18 366.8 936.62"/>
    <polyline class="d" points="318.95 216.62 318.95 217.59 318.95 265.44 318.95 313.67 318.95 361.53 318.95 409.38 318.95 457.25 318.95 505.11 318.95 552.96 318.95 600.82 318.95 648.68 318.95 696.9 318.95 744.76 318.95 792.61 318.95 840.47 318.95 888.34 318.95 936.18 318.95 936.62"/>
    <polyline class="d" points="271.09 936.62 271.09 936.18 271.09 888.34 271.09 840.47 271.09 792.61 271.09 744.76 271.09 696.9 271.09 648.68 271.09 600.82 271.09 552.96 271.09 505.11 271.09 457.25 271.09 409.38 271.09 361.53 271.09 313.67 271.09 265.44 271.09 217.59 271.09 216.62"/>
    <polyline class="d" points="223.23 936.62 223.23 936.18 223.23 888.34 223.23 840.47 223.23 792.61 223.23 744.76 223.23 696.9 223.23 648.68 223.23 600.82 223.23 552.96 223.23 505.11 223.23 457.25 223.23 409.38 223.23 361.53 223.23 313.67 223.23 265.44 223.23 217.59 223.23 216.62"/>
    <polyline class="d" points="175.37 936.62 175.37 936.18 175.37 888.34 175.37 840.47 175.37 792.61 175.37 744.76 175.37 696.9 175.37 648.68 175.37 600.82 175.37 552.96 175.37 505.11 175.37 457.25 175.37 409.38 175.37 361.53 175.37 313.67 175.37 265.44 175.37 217.59 175.37 216.62"/>
    <polyline class="d" points="127.15 936.62 127.15 936.18 127.15 888.34 127.15 840.47 127.15 792.61 127.15 744.76 127.15 696.9 127.15 648.68 127.15 600.82 127.15 552.96 127.15 505.11 127.15 457.25 127.15 409.38 127.15 361.53 127.15 313.67 127.15 265.44 127.15 217.59 127.15 216.62"/>
    <polyline class="d" points="79.3 936.62 79.3 936.18 79.3 888.34 79.3 840.47 79.3 792.61 79.3 744.76 79.3 696.9 79.3 648.68 79.3 600.82 79.3 552.96 79.3 505.11 79.3 457.25 79.3 409.38 79.3 361.53 79.3 313.67 79.3 265.44 79.3 217.59 79.3 216.62"/>
    <polyline class="d" points="31.43 936.62 31.43 936.18 31.43 888.34 31.43 840.47 31.43 792.61 31.43 744.76 31.43 696.9 31.43 648.68 31.43 600.82 31.43 552.96 31.43 505.11 31.43 457.25 31.43 409.38 31.43 361.53 31.43 313.67 31.43 265.44 31.43 217.59 31.43 216.62"/>
  </g>
</svg>